<?xml version="1.0" encoding="utf-8"?>
<!-- Generator: Adobe Illustrator 19.1.0, SVG Export Plug-In . SVG Version: 6.00 Build 0)  -->
<svg version="1.1" id="Layer_1" xmlns="http://www.w3.org/2000/svg" xmlns:xlink="http://www.w3.org/1999/xlink" x="0px" y="0px"
	 viewBox="-130 172 350 450" style="enable-background:new -130 172 350 450;" xml:space="preserve">
<style type="text/css">
	.st0{stroke:#FFFFFF;stroke-width:2;stroke-miterlimit:10;}
	.st1{fill:#007934;stroke:#FFFFFF;stroke-width:2;stroke-miterlimit:10;}
	.st2{fill:#FDBA12;stroke:#FFFFFF;stroke-width:2;stroke-miterlimit:10;}
	.st3{fill:#001689;stroke:#FFFFFF;stroke-width:2;stroke-miterlimit:10;}
</style>
<path class="st0" d="M-111.2,481.3c0-12.7,4.7-22.7,13.9-30.1c9.3-7.4,22-11,38-11h53.1v18.4h-28.1c4.7,4.8,7.9,9,9.7,12.9
	c1.8,3.9,2.7,8.4,2.7,13.4c0,6.2-1.8,12.3-5.4,18.3c-3.6,6-8.1,10.6-13.7,13.8c-5.6,3.2-14.7,5.7-27.3,7.7
	c-8.9,1.3-13.4,4.3-13.4,9.1c0,2.8,1.7,5,5,6.8c3.3,1.8,9.4,3.6,18.1,5.5c14.6,3.2,24,5.7,28.1,7.5c4.2,1.8,7.9,4.5,11.4,7.8
	c5.7,5.7,8.6,12.8,8.6,21.4c0,11.3-5,20.3-15,27s-23.5,10.1-40.4,10.1c-16.9,0-30.5-3.3-40.7-10.1s-15.2-15.8-15.2-27.2
	c0-16.1,9.9-26.4,29.9-31.1c-7.9-5.1-11.9-10.1-11.9-15.2c0-3.8,1.7-7.2,5.1-10.4c3.5-3.1,8-5.4,13.8-6.9
	C-102.5,511.2-111.2,498.6-111.2,481.3z M-72.5,564.7c-7.9,0-14.4,1.7-19.5,5c-5,3.3-7.6,7.7-7.6,12.9c0,12.3,11,18.4,33.1,18.4
	c10.5,0,18.5-1.6,24.3-4.6c5.7-3,8.6-7.4,8.6-12.9c0-5.5-3.6-10-10.8-13.5C-51.6,566.5-61,564.7-72.5,564.7z M-66.9,460.6
	c-6.4,0-11.8,2.1-16.3,6.5c-4.5,4.3-6.7,9.5-6.7,15.5c0,6.1,2.2,11.1,6.6,15.2c4.5,4,9.9,6,16.7,6c6.7,0,12.1-2,16.6-6.1
	c4.5-4.1,6.7-9.3,6.7-15.4c0-6.2-2.2-11.4-6.7-15.5C-54.6,462.7-60.2,460.6-66.9,460.6z"/>
<path class="st0" d="M22.8,440.2v15.2c10.5-11.6,22.5-17.5,35.9-17.5c7.5,0,14.3,1.9,20.7,5.8c6.4,3.8,11.3,9.1,14.6,15.8
	c3.3,6.7,5,17.3,5,31.8v68.1H75.5v-67.8c0-12.1-1.9-20.8-5.6-26.1c-3.7-5.2-9.9-7.8-18.6-7.8c-11.1,0-20.6,5.6-28.3,16.7v85H-1
	V440.2H22.8z"/>
<path class="st0" d="M188.6,487.7v50.6c0,4,1.3,6.1,4.1,6.1c2.8,0,7.2-2.1,13.3-6.4v14.4c-5.4,3.5-9.6,5.8-12.8,7
	c-3.2,1.2-6.6,1.9-10.1,1.9c-10.1,0-16.1-3.9-17.8-11.9c-10,7.8-20.6,11.6-32,11.6c-8.2,0-15.2-2.7-20.7-8.2
	c-5.6-5.5-8.2-12.4-8.2-20.6c0-7.5,2.7-14.2,8.1-20.1c5.4-5.9,13-10.6,23-14l30.1-10.4v-6.4c0-14.3-7.1-21.5-21.5-21.5
	c-12.8,0-27,5.2-39.2,18.5c0,0-0.7-7-2.2-13.3c-1-4.1-3.2-9-3.2-9c9.1-10.8,29.4-18.3,46.6-18.3c12.8,0,23.2,3.3,30.9,10.1
	c2.6,2.1,4.9,5,7,8.6c2.1,3.6,3.3,7.1,3.9,10.7C188.3,470.8,188.6,477.6,188.6,487.7z M165.5,535.6v-35.3l-15.8,6.1
	c-8,3.2-13.7,6.4-17.1,9.6c-3.3,3.2-5,7.2-5,12.1s1.6,8.9,4.7,12c3.1,3.1,7.2,4.7,12.3,4.7C152.1,544.9,159,541.7,165.5,535.6z"/>
<path class="st1" d="M80.4,305.5c0-14-10.1-32.4-33-32.4c-22.1,0-33,15.5-33,32c0,14.2,11.9,29.6,11.9,29.6s6.4,8,13.3,26.6
	c6.5,17.2,7.4,39.9,7.5,35c0.1,5.1,1-17.7,7.5-35c6.9-18.6,13.3-26.6,13.3-26.6S80.4,319.4,80.4,305.5z"/>
<path class="st2" d="M0.9,311.5c-6.9-12.3-24.6-23.4-44.6-12.3C-63,310-65,328.8-57,343.2c6.9,12.4,24.9,20.2,24.9,20.2
	s9.5,3.9,24.5,16.8c13.9,11.9,25.9,31.3,23.5,27c2.6,4.5-7.7-15.9-10.5-34.2c-3-19.6-1.3-29.8-1.3-29.8S7.5,323.5,0.9,311.5z"/>
<path class="st3" d="M93.8,311.5c6.9-12.3,24.6-23.4,44.6-12.3c19.3,10.8,21.3,29.6,13.3,44c-6.9,12.4-24.9,20.2-24.9,20.2
	s-9.5,3.9-24.6,16.8c-13.9,11.9-25.9,31.3-23.5,27c-2.6,4.5,7.7-15.9,10.5-34.2c3-19.6,1.3-29.8,1.3-29.8S87,323.5,93.8,311.5z"/>
<path class="st2" d="M-37.5,251.8c0,22.5-18.3,40.8-40.8,40.8s-40.8-18.3-40.8-40.8s18.3-40.8,40.8-40.8S-37.5,229.3-37.5,251.8z"/>
<circle class="st1" cx="46.3" cy="214.9" r="40.8"/>
<path class="st3" d="M211.8,249.8c0,22.5-18.3,40.8-40.8,40.8s-40.8-18.3-40.8-40.8S148.4,209,171,209
	C193.5,209,211.8,227.3,211.8,249.8z"/>
</svg>
